<svg width="40" height="40" viewBox="0 0 40 40" fill="none" xmlns="http://www.w3.org/2000/svg">
<path d="M19.9998 32.3775C17.5518 32.3775 15.1587 31.6515 13.1233 30.2915C11.0878 28.9314 9.50133 26.9983 8.5645 24.7366C7.62768 22.4749 7.38256 19.9862 7.86015 17.5852C8.33774 15.1842 9.51658 12.9788 11.2476 11.2477C12.9786 9.51671 15.1841 8.33786 17.5851 7.86027C19.9861 7.38268 22.4748 7.6278 24.7365 8.56462C26.9982 9.50145 28.9313 11.0879 30.2914 13.1234C31.6514 15.1588 32.3773 17.5519 32.3773 20C32.3736 23.2815 31.0683 26.4276 28.7479 28.748C26.4275 31.0685 23.2814 32.3737 19.9998 32.3775ZM19.9998 8.75758C17.7763 8.75758 15.6027 9.41693 13.7539 10.6523C11.9051 11.8876 10.4641 13.6434 9.61323 15.6977C8.76232 17.752 8.53968 20.0124 8.97347 22.1932C9.40726 24.374 10.478 26.3772 12.0503 27.9495C13.6225 29.5218 15.6257 30.5925 17.8066 31.0263C19.9874 31.4601 22.2478 31.2375 24.3021 30.3866C26.3564 29.5357 28.1122 28.0947 29.3475 26.2459C30.5829 24.3971 31.2422 22.2235 31.2422 20C31.2388 17.0194 30.0532 14.1618 27.9456 12.0542C25.838 9.9466 22.9804 8.76103 19.9998 8.75758Z" fill="white"/>
<path d="M20 29.4443C18.1321 29.4443 16.3061 28.8904 14.753 27.8527C13.1999 26.8149 11.9894 25.3399 11.2745 23.6142C10.5597 21.8885 10.3727 19.9895 10.7371 18.1575C11.1015 16.3255 12.001 14.6427 13.3218 13.3218C14.6426 12.001 16.3255 11.1016 18.1575 10.7371C19.9895 10.3727 21.8884 10.5598 23.6142 11.2746C25.3399 11.9894 26.8149 13.1999 27.8526 14.753C28.8904 16.3061 29.4443 18.1321 29.4443 20C29.4414 22.5039 28.4455 24.9045 26.675 26.675C24.9044 28.4455 22.5039 29.4415 20 29.4443ZM20 11.6908C18.3566 11.6908 16.7501 12.1781 15.3836 13.0912C14.0172 14.0042 12.9522 15.3019 12.3233 16.8202C11.6944 18.3385 11.5298 20.0092 11.8504 21.621C12.171 23.2329 12.9624 24.7134 14.1245 25.8755C15.2865 27.0375 16.7671 27.8289 18.3789 28.1495C19.9908 28.4701 21.6615 28.3056 23.1798 27.6767C24.6981 27.0478 25.9958 25.9828 26.9088 24.6163C27.8218 23.2499 28.3092 21.6434 28.3092 20C28.3066 17.797 27.4304 15.6851 25.8726 14.1273C24.3149 12.5696 22.2029 11.6934 20 11.6908Z" fill="white"/>
<path d="M20.9454 20.1817H18.0588C17.9083 20.1817 17.7639 20.1219 17.6575 20.0154C17.551 19.909 17.4912 19.7646 17.4912 19.6141V14.9742C17.4912 14.8237 17.551 14.6793 17.6575 14.5729C17.7639 14.4665 17.9083 14.4067 18.0588 14.4067H20.9454C21.328 14.4013 21.7079 14.472 22.0629 14.6147C22.418 14.7574 22.7411 14.9693 23.0135 15.2379C23.286 15.5066 23.5023 15.8267 23.65 16.1797C23.7977 16.5327 23.8737 16.9115 23.8737 17.2942C23.8737 17.6768 23.7977 18.0556 23.65 18.4086C23.5023 18.7616 23.286 19.0817 23.0135 19.3504C22.7411 19.6191 22.418 19.8309 22.0629 19.9736C21.7079 20.1163 21.328 20.187 20.9454 20.1817ZM18.6264 19.0465H20.9454C21.1782 19.0507 21.4095 19.0085 21.6258 18.9223C21.8421 18.8361 22.039 18.7077 22.2051 18.5446C22.3712 18.3814 22.5031 18.1868 22.5932 17.9721C22.6832 17.7575 22.7296 17.527 22.7296 17.2942C22.7296 17.0613 22.6832 16.8309 22.5932 16.6162C22.5031 16.4015 22.3712 16.2069 22.2051 16.0437C22.039 15.8806 21.8421 15.7522 21.6258 15.666C21.4095 15.5798 21.1782 15.5376 20.9454 15.5418H18.6264V19.0465Z" fill="white"/>
<path d="M21.6827 24.8243H18.0588C17.9083 24.8243 17.7639 24.7645 17.6575 24.6581C17.551 24.5517 17.4912 24.4073 17.4912 24.2568V19.6141C17.4912 19.4635 17.551 19.3192 17.6575 19.2127C17.7639 19.1063 17.9083 19.0465 18.0588 19.0465H21.6827C22.4486 19.0465 23.1831 19.3508 23.7247 19.8923C24.2663 20.4339 24.5705 21.1684 24.5705 21.9343C24.5705 22.7002 24.2663 23.4347 23.7247 23.9763C23.1831 24.5178 22.4486 24.8221 21.6827 24.8221V24.8243ZM18.6264 23.6892H21.6827C22.1476 23.6892 22.5933 23.5046 22.922 23.1759C23.2507 22.8472 23.4354 22.4014 23.4354 21.9366C23.4354 21.4717 23.2507 21.0259 22.922 20.6973C22.5933 20.3686 22.1476 20.1839 21.6827 20.1839H18.6264V23.6892Z" fill="white"/>
<path d="M18.0588 15.5417H17.2301C17.0796 15.5417 16.9352 15.4819 16.8288 15.3755C16.7224 15.2691 16.6626 15.1247 16.6626 14.9742C16.6626 14.8237 16.7224 14.6793 16.8288 14.5729C16.9352 14.4664 17.0796 14.4066 17.2301 14.4066H18.0588C18.2093 14.4066 18.3537 14.4664 18.4601 14.5729C18.5666 14.6793 18.6264 14.8237 18.6264 14.9742C18.6264 15.1247 18.5666 15.2691 18.4601 15.3755C18.3537 15.4819 18.2093 15.5417 18.0588 15.5417Z" fill="white"/>
<path d="M18.5244 15.5418C18.3739 15.5418 18.2296 15.482 18.1231 15.3755C18.0167 15.2691 17.9569 15.1247 17.9569 14.9742V13.9299C17.9569 13.7793 18.0167 13.635 18.1231 13.5285C18.2296 13.4221 18.3739 13.3623 18.5244 13.3623C18.675 13.3623 18.8193 13.4221 18.9258 13.5285C19.0322 13.635 19.092 13.7793 19.092 13.9299V14.9742C19.092 15.1247 19.0322 15.2691 18.9258 15.3755C18.8193 15.482 18.675 15.5418 18.5244 15.5418Z" fill="white"/>
<path d="M20.3317 15.5418C20.1812 15.5418 20.0368 15.482 19.9304 15.3755C19.824 15.2691 19.7642 15.1247 19.7642 14.9742V13.9299C19.7642 13.7793 19.824 13.635 19.9304 13.5285C20.0368 13.4221 20.1812 13.3623 20.3317 13.3623C20.4823 13.3623 20.6266 13.4221 20.7331 13.5285C20.8395 13.635 20.8993 13.7793 20.8993 13.9299V14.9742C20.8993 15.1247 20.8395 15.2691 20.7331 15.3755C20.6266 15.482 20.4823 15.5418 20.3317 15.5418Z" fill="white"/>
<path d="M18.5244 25.8658C18.3739 25.8658 18.2296 25.806 18.1231 25.6996C18.0167 25.5931 17.9569 25.4488 17.9569 25.2983V24.2568C17.9569 24.1062 18.0167 23.9619 18.1231 23.8554C18.2296 23.749 18.3739 23.6892 18.5244 23.6892C18.675 23.6892 18.8193 23.749 18.9258 23.8554C19.0322 23.9619 19.092 24.1062 19.092 24.2568V25.3005C19.0914 25.4507 19.0313 25.5944 18.925 25.7004C18.8186 25.8063 18.6746 25.8658 18.5244 25.8658Z" fill="white"/>
<path d="M20.3317 25.8658C20.1812 25.8658 20.0368 25.806 19.9304 25.6996C19.824 25.5931 19.7642 25.4488 19.7642 25.2983V24.2568C19.7642 24.1062 19.824 23.9619 19.9304 23.8554C20.0368 23.749 20.1812 23.6892 20.3317 23.6892C20.4823 23.6892 20.6266 23.749 20.7331 23.8554C20.8395 23.9619 20.8993 24.1062 20.8993 24.2568V25.3005C20.8987 25.4507 20.8386 25.5944 20.7323 25.7004C20.6259 25.8063 20.4819 25.8658 20.3317 25.8658Z" fill="white"/>
<path d="M18.0588 24.8244H17.2301C17.0796 24.8244 16.9352 24.7646 16.8288 24.6581C16.7224 24.5517 16.6626 24.4073 16.6626 24.2568C16.6626 24.1063 16.7224 23.9619 16.8288 23.8554C16.9352 23.749 17.0796 23.6892 17.2301 23.6892H18.0588C18.2093 23.6892 18.3537 23.749 18.4601 23.8554C18.5666 23.9619 18.6264 24.1063 18.6264 24.2568C18.6264 24.4073 18.5666 24.5517 18.4601 24.6581C18.3537 24.7646 18.2093 24.8244 18.0588 24.8244Z" fill="white"/>
<path d="M20 8.75758C19.8495 8.75758 19.7051 8.69778 19.5987 8.59134C19.4922 8.4849 19.4324 8.34054 19.4324 8.19001V4.25336C19.4324 4.10283 19.4922 3.95847 19.5987 3.85203C19.7051 3.74559 19.8495 3.68579 20 3.68579C20.1505 3.68579 20.2949 3.74559 20.4013 3.85203C20.5078 3.95847 20.5676 4.10283 20.5676 4.25336V8.19001C20.5676 8.34054 20.5078 8.4849 20.4013 8.59134C20.2949 8.69778 20.1505 8.75758 20 8.75758Z" fill="white"/>
<path d="M19.9997 4.82097C19.5363 4.82097 19.0833 4.68356 18.698 4.42612C18.3127 4.16867 18.0124 3.80276 17.8351 3.37465C17.6578 2.94654 17.6114 2.47545 17.7018 2.02097C17.7922 1.56649 18.0153 1.14902 18.343 0.821358C18.6707 0.493695 19.0881 0.270553 19.5426 0.180151C19.9971 0.0897494 20.4682 0.136147 20.8963 0.313477C21.3244 0.490807 21.6903 0.791105 21.9477 1.1764C22.2052 1.56169 22.3426 2.01467 22.3426 2.47805C22.3418 3.0992 22.0948 3.6947 21.6555 4.13392C21.2163 4.57314 20.6208 4.82022 19.9997 4.82097ZM19.9997 1.27027C19.7608 1.27027 19.5273 1.3411 19.3287 1.47382C19.1301 1.60653 18.9753 1.79516 18.8838 2.01585C18.7924 2.23655 18.7685 2.47939 18.8151 2.71368C18.8617 2.94797 18.9767 3.16317 19.1457 3.33208C19.3146 3.501 19.5298 3.61603 19.7641 3.66263C19.9983 3.70923 20.2412 3.68531 20.4619 3.5939C20.6826 3.50249 20.8712 3.34768 21.0039 3.14906C21.1366 2.95044 21.2075 2.71693 21.2075 2.47805C21.2072 2.15782 21.0798 1.85079 20.8534 1.62435C20.6269 1.39791 20.3199 1.27057 19.9997 1.27027Z" fill="white"/>
<path d="M20 36.3142C19.8495 36.3142 19.7051 36.2544 19.5987 36.148C19.4922 36.0415 19.4324 35.8972 19.4324 35.7467V31.81C19.4324 31.6595 19.4922 31.5151 19.5987 31.4087C19.7051 31.3022 19.8495 31.2424 20 31.2424C20.1505 31.2424 20.2949 31.3022 20.4013 31.4087C20.5078 31.5151 20.5676 31.6595 20.5676 31.81V35.7467C20.5676 35.8972 20.5078 36.0415 20.4013 36.148C20.2949 36.2544 20.1505 36.3142 20 36.3142Z" fill="white"/>
<path d="M19.9997 39.8649C19.5363 39.8649 19.0833 39.7275 18.698 39.47C18.3127 39.2126 18.0124 38.8467 17.8351 38.4186C17.6578 37.9905 17.6114 37.5194 17.7018 37.0649C17.7922 36.6104 18.0153 36.193 18.343 35.8653C18.6707 35.5376 19.0881 35.3145 19.5426 35.2241C19.9971 35.1337 20.4682 35.1801 20.8963 35.3574C21.3244 35.5348 21.6903 35.835 21.9477 36.2203C22.2052 36.6056 22.3426 37.0586 22.3426 37.522C22.3418 38.1431 22.0948 38.7386 21.6555 39.1778C21.2163 39.6171 20.6208 39.8641 19.9997 39.8649ZM19.9997 36.3142C19.7608 36.3142 19.5273 36.385 19.3287 36.5178C19.1301 36.6505 18.9753 36.8391 18.8838 37.0598C18.7924 37.2805 18.7685 37.5233 18.8151 37.7576C18.8617 37.9919 18.9767 38.2071 19.1457 38.376C19.3146 38.5449 19.5298 38.66 19.7641 38.7066C19.9983 38.7532 20.2412 38.7292 20.4619 38.6378C20.6826 38.5464 20.8712 38.3916 21.0039 38.193C21.1366 37.9944 21.2075 37.7609 21.2075 37.522C21.2072 37.2018 21.0798 36.8947 20.8534 36.6683C20.6269 36.4419 20.3199 36.3145 19.9997 36.3142Z" fill="white"/>
<path d="M35.7467 20.5675H31.8101C31.6595 20.5675 31.5152 20.5077 31.4087 20.4013C31.3023 20.2948 31.2425 20.1505 31.2425 19.9999C31.2425 19.8494 31.3023 19.7051 31.4087 19.5986C31.5152 19.4922 31.6595 19.4324 31.8101 19.4324H35.7467C35.8972 19.4324 36.0416 19.4922 36.148 19.5986C36.2545 19.7051 36.3143 19.8494 36.3143 19.9999C36.3143 20.1505 36.2545 20.2948 36.148 20.4013C36.0416 20.5077 35.8972 20.5675 35.7467 20.5675Z" fill="white"/>
<path d="M37.5214 22.3429C37.0581 22.3429 36.6051 22.2055 36.2198 21.9481C35.8345 21.6906 35.5342 21.3247 35.3569 20.8966C35.1795 20.4685 35.1331 19.9974 35.2235 19.5429C35.3139 19.0885 35.5371 18.671 35.8648 18.3433C36.1924 18.0157 36.6099 17.7925 37.0644 17.7021C37.5188 17.6117 37.9899 17.6581 38.418 17.8354C38.8461 18.0128 39.2121 18.3131 39.4695 18.6984C39.7269 19.0837 39.8643 19.5366 39.8643 20C39.8636 20.6212 39.6165 21.2167 39.1773 21.6559C38.7381 22.0951 38.1426 22.3422 37.5214 22.3429ZM37.5214 18.7922C37.2826 18.7922 37.049 18.8631 36.8504 18.9958C36.6518 19.1285 36.497 19.3171 36.4056 19.5378C36.3142 19.7585 36.2903 20.0014 36.3369 20.2356C36.3835 20.4699 36.4985 20.6851 36.6674 20.854C36.8363 21.023 37.0515 21.138 37.2858 21.1846C37.5201 21.2312 37.7629 21.2073 37.9836 21.1159C38.2043 21.0244 38.393 20.8696 38.5257 20.671C38.6584 20.4724 38.7292 20.2389 38.7292 20C38.7289 19.6798 38.6016 19.3728 38.3751 19.1463C38.1487 18.9199 37.8417 18.7925 37.5214 18.7922Z" fill="white"/>
<path d="M8.1901 20.5675H4.25345C4.10292 20.5675 3.95856 20.5077 3.85212 20.4013C3.74568 20.2948 3.68588 20.1505 3.68588 19.9999C3.68588 19.8494 3.74568 19.7051 3.85212 19.5986C3.95856 19.4922 4.10292 19.4324 4.25345 19.4324H8.1901C8.34063 19.4324 8.48499 19.4922 8.59143 19.5986C8.69787 19.7051 8.75767 19.8494 8.75767 19.9999C8.75767 20.1505 8.69787 20.2948 8.59143 20.4013C8.48499 20.5077 8.34063 20.5675 8.1901 20.5675Z" fill="white"/>
<path d="M2.47796 22.3429C2.01457 22.3429 1.5616 22.2055 1.1763 21.9481C0.791013 21.6906 0.490715 21.3247 0.313385 20.8966C0.136055 20.4685 0.0896578 19.9974 0.18006 19.5429C0.270462 19.0885 0.493603 18.671 0.821267 18.3433C1.14893 18.0157 1.5664 17.7925 2.02088 17.7021C2.47536 17.6117 2.94644 17.6581 3.37456 17.8354C3.80267 18.0128 4.16858 18.3131 4.42603 18.6984C4.68347 19.0837 4.82088 19.5366 4.82088 20C4.82013 20.6212 4.57304 21.2167 4.13383 21.6559C3.69461 22.0951 3.09911 22.3422 2.47796 22.3429ZM2.47796 18.7922C2.23908 18.7922 2.00557 18.8631 1.80695 18.9958C1.60833 19.1285 1.45353 19.3171 1.36211 19.5378C1.2707 19.7585 1.24678 20.0014 1.29338 20.2356C1.33999 20.4699 1.45502 20.6851 1.62393 20.854C1.79284 21.023 2.00805 21.138 2.24233 21.1846C2.47662 21.2312 2.71947 21.2073 2.94016 21.1159C3.16085 21.0244 3.34948 20.8696 3.4822 20.671C3.61491 20.4724 3.68574 20.2389 3.68574 20C3.68544 19.6798 3.5581 19.3728 3.33166 19.1463C3.10522 18.9199 2.79819 18.7925 2.47796 18.7922Z" fill="white"/>
<path d="M10.1812 33.6943H5.64972C5.49919 33.6943 5.35483 33.6345 5.24839 33.5281C5.14195 33.4216 5.08215 33.2773 5.08215 33.1267C5.08215 32.9762 5.14195 32.8319 5.24839 32.7254C5.35483 32.619 5.49919 32.5592 5.64972 32.5592H9.86845L12.1387 28.9177C12.2183 28.7897 12.3455 28.6986 12.4923 28.6645C12.6391 28.6303 12.7934 28.6558 12.9214 28.7355C13.0493 28.8151 13.1404 28.9423 13.1746 29.0891C13.2087 29.2358 13.1832 29.3902 13.1036 29.5181L10.6676 33.427C10.6162 33.5095 10.5445 33.5774 10.4593 33.6242C10.3741 33.671 10.2784 33.6951 10.1812 33.6943Z" fill="white"/>
<path d="M3.87507 35.4696C3.41171 35.4695 2.95878 35.332 2.57357 35.0745C2.18835 34.817 1.88814 34.451 1.7109 34.0229C1.53365 33.5948 1.48734 33.1237 1.5778 32.6693C1.66827 32.2149 1.89146 31.7974 2.21914 31.4698C2.54683 31.1422 2.9643 30.9191 3.41876 30.8288C3.87323 30.7384 4.34428 30.7849 4.77236 30.9622C5.20044 31.1396 5.56632 31.4399 5.82374 31.8251C6.08116 32.2104 6.21855 32.6634 6.21855 33.1267C6.21795 33.748 5.97084 34.3437 5.53146 34.783C5.09209 35.2222 4.49636 35.4692 3.87507 35.4696ZM3.87507 31.9189C3.63621 31.9191 3.40276 31.99 3.20421 32.1228C3.00567 32.2556 2.85095 32.4442 2.75963 32.6649C2.6683 32.8856 2.64446 33.1285 2.69113 33.3627C2.73779 33.597 2.85287 33.8121 3.0218 33.981C3.19074 34.1498 3.40595 34.2648 3.64022 34.3113C3.87449 34.3579 4.1173 34.3339 4.33797 34.2425C4.55863 34.1511 4.74722 33.9963 4.87991 33.7977C5.0126 33.5991 5.08342 33.3656 5.08342 33.1267C5.08312 32.8064 4.9557 32.4993 4.72913 32.2728C4.50257 32.0464 4.1954 31.9191 3.87507 31.9189Z" fill="white"/>
<path d="M12.6217 11.3498C12.5252 11.3499 12.4303 11.3254 12.3458 11.2786C12.2614 11.2319 12.1903 11.1643 12.1393 11.0824L9.86902 7.44092H5.64972C5.49919 7.44092 5.35483 7.38112 5.24839 7.27468C5.14195 7.16825 5.08215 7.02388 5.08215 6.87335C5.08215 6.72283 5.14195 6.57846 5.24839 6.47202C5.35483 6.36558 5.49919 6.30579 5.64972 6.30579H10.1812C10.2776 6.30575 10.3724 6.33027 10.4567 6.37704C10.541 6.42382 10.612 6.49129 10.663 6.57311L13.099 10.4819C13.1524 10.5676 13.182 10.6659 13.1848 10.7667C13.1875 10.8676 13.1633 10.9673 13.1147 11.0557C13.0661 11.1441 12.9948 11.218 12.9081 11.2697C12.8215 11.3213 12.7226 11.349 12.6217 11.3498Z" fill="white"/>
<path d="M3.87507 9.21623C3.41171 9.21612 2.95878 9.07862 2.57357 8.8211C2.18835 8.56359 1.88814 8.19764 1.7109 7.76952C1.53365 7.3414 1.48734 6.87033 1.5778 6.41589C1.66827 5.96144 1.89146 5.54403 2.21914 5.21642C2.54683 4.88881 2.9643 4.66573 3.41876 4.57537C3.87323 4.48502 4.34428 4.53145 4.77236 4.70879C5.20044 4.88614 5.56632 5.18644 5.82374 5.57172C6.08116 5.957 6.21855 6.40995 6.21855 6.87331C6.21795 7.49461 5.97084 8.09028 5.53146 8.52955C5.09209 8.96881 4.49636 9.21578 3.87507 9.21623ZM3.87507 5.66553C3.63621 5.66564 3.40276 5.73657 3.20421 5.86936C3.00567 6.00214 2.85095 6.19081 2.75963 6.41151C2.6683 6.63221 2.64446 6.87504 2.69113 7.10929C2.73779 7.34354 2.85287 7.55869 3.0218 7.72755C3.19074 7.8964 3.40595 8.01138 3.64022 8.05793C3.87449 8.10449 4.1173 8.08054 4.33797 7.98911C4.55863 7.89768 4.74722 7.74287 4.87991 7.54426C5.0126 7.34566 5.08342 7.11217 5.08342 6.87331C5.08312 6.55298 4.9557 6.24587 4.72913 6.01941C4.50257 5.79296 4.1954 5.66568 3.87507 5.66553Z" fill="white"/>
<path d="M34.3501 33.6943H29.8186C29.7222 33.6943 29.6274 33.6698 29.5431 33.623C29.4588 33.5763 29.3878 33.5088 29.3368 33.427L26.8985 29.5181C26.8189 29.3902 26.7933 29.2358 26.8275 29.0891C26.8616 28.9423 26.9527 28.8151 27.0807 28.7355C27.2086 28.6558 27.363 28.6303 27.5097 28.6645C27.6565 28.6986 27.7837 28.7897 27.8633 28.9176L30.1336 32.5592H34.3524C34.5029 32.5592 34.6472 32.619 34.7537 32.7254C34.8601 32.8318 34.9199 32.9762 34.9199 33.1267C34.9199 33.2772 34.8601 33.4216 34.7537 33.528C34.6472 33.6345 34.5029 33.6943 34.3524 33.6943H34.3501Z" fill="white"/>
<path d="M36.1249 35.4696C35.6615 35.4696 35.2085 35.3322 34.8232 35.0748C34.4379 34.8174 34.1376 34.4514 33.9603 34.0233C33.783 33.5952 33.7366 33.1241 33.827 32.6697C33.9174 32.2152 34.1405 31.7977 34.4682 31.47C34.7958 31.1424 35.2133 30.9192 35.6678 30.8288C36.1223 30.7384 36.5934 30.7848 37.0215 30.9622C37.4496 31.1395 37.8155 31.4398 38.0729 31.8251C38.3304 32.2104 38.4678 32.6633 38.4678 33.1267C38.4671 33.7479 38.22 34.3434 37.7807 34.7826C37.3415 35.2218 36.746 35.4689 36.1249 35.4696ZM36.1249 31.9189C35.886 31.9189 35.6525 31.9898 35.4539 32.1225C35.2552 32.2552 35.1004 32.4438 35.009 32.6645C34.9176 32.8852 34.8937 33.1281 34.9403 33.3624C34.9869 33.5966 35.1019 33.8119 35.2708 33.9808C35.4398 34.1497 35.655 34.2647 35.8893 34.3113C36.1235 34.3579 36.3664 34.334 36.5871 34.2426C36.8078 34.1512 36.9964 33.9964 37.1291 33.7977C37.2618 33.5991 37.3327 33.3656 37.3327 33.1267C37.3322 32.8065 37.2048 32.4996 36.9784 32.2732C36.752 32.0468 36.4451 31.9194 36.1249 31.9189Z" fill="white"/>
<path d="M27.3785 11.3498C27.2773 11.3497 27.1779 11.3226 27.0907 11.2712C27.0035 11.2198 26.9316 11.146 26.8825 11.0575C26.8334 10.9689 26.8089 10.8689 26.8115 10.7677C26.814 10.6665 26.8436 10.5678 26.8972 10.4819L29.3332 6.57311C29.3842 6.49129 29.4552 6.42382 29.5395 6.37704C29.6238 6.33027 29.7186 6.30575 29.8151 6.30579H34.3488C34.4993 6.30579 34.6437 6.36558 34.7501 6.47202C34.8566 6.57846 34.9164 6.72283 34.9164 6.87335C34.9164 7.02388 34.8566 7.16824 34.7501 7.27468C34.6437 7.38112 34.4993 7.44092 34.3488 7.44092H30.1318L27.8615 11.0824C27.8104 11.1644 27.7392 11.232 27.6547 11.2788C27.5702 11.3256 27.4751 11.35 27.3785 11.3498Z" fill="white"/>
<path d="M36.1249 9.21623C35.6615 9.21623 35.2085 9.07882 34.8232 8.82138C34.4379 8.56394 34.1376 8.19802 33.9603 7.76991C33.783 7.3418 33.7366 6.87072 33.827 6.41623C33.9174 5.96175 34.1405 5.54428 34.4682 5.21662C34.7958 4.88896 35.2133 4.66582 35.6678 4.57542C36.1223 4.48501 36.5934 4.53141 37.0215 4.70874C37.4496 4.88607 37.8155 5.18637 38.0729 5.57166C38.3304 5.95695 38.4678 6.40993 38.4678 6.87331C38.4669 7.49442 38.2198 8.08983 37.7806 8.52901C37.3414 8.9682 36.746 9.21533 36.1249 9.21623ZM36.1249 5.66553C35.886 5.66553 35.6525 5.73637 35.4539 5.86908C35.2552 6.00179 35.1004 6.19042 35.009 6.41112C34.9176 6.63181 34.8937 6.87466 34.9403 7.10894C34.9869 7.34323 35.1019 7.55844 35.2708 7.72735C35.4398 7.89626 35.655 8.01129 35.8893 8.05789C36.1235 8.10449 36.3664 8.08058 36.5871 7.98916C36.8078 7.89775 36.9964 7.74294 37.1291 7.54432C37.2618 7.3457 37.3327 7.11219 37.3327 6.87331C37.3324 6.55308 37.205 6.24605 36.9786 6.01962C36.7521 5.79318 36.4451 5.66583 36.1249 5.66553Z" fill="white"/>
</svg>
